<svg width="24" height="24" viewBox="0 0 25 25" fill="none" xmlns="http://www.w3.org/2000/svg">
<rect x="0.5" y="0.5" width="24" height="24" rx="12" fill="white"/>
<path fill-rule="evenodd" clip-rule="evenodd" d="M20.465 12.6884C20.465 12.1003 20.4123 11.5343 20.3142 10.9915H12.5V14.2009H16.9652C16.7729 15.238 16.1882 16.1165 15.3097 16.705V18.7867H17.9911C19.5601 17.3421 20.465 15.2151 20.465 12.6884Z" fill="#4285F4"/>
<path fill-rule="evenodd" clip-rule="evenodd" d="M12.4999 20.7969C14.7401 20.7969 16.6181 20.054 17.991 18.7867L15.3096 16.705C14.5667 17.2029 13.6161 17.4971 12.4999 17.4971C10.3388 17.4971 8.51002 16.0378 7.85752 14.0764H5.08545V16.2262C6.45057 18.9378 9.25639 20.7969 12.4999 20.7969Z" fill="#34A853"/>
<path fill-rule="evenodd" clip-rule="evenodd" d="M7.85762 14.0763C7.69168 13.5785 7.59746 13.0466 7.59746 12.4999C7.59746 11.9532 7.69168 11.4213 7.85762 10.9235V8.77368H5.08555C4.52375 9.89376 4.20312 11.1611 4.20312 12.4999C4.20312 13.8386 4.52375 15.106 5.08555 16.2261L7.85762 14.0763Z" fill="#FBBC05"/>
<path fill-rule="evenodd" clip-rule="evenodd" d="M12.4999 7.50289C13.7181 7.50289 14.8118 7.9216 15.6717 8.74355L18.0514 6.36383C16.6142 5.02543 14.7362 4.20312 12.4999 4.20312C9.25674 4.20312 6.45057 6.06254 5.08545 8.77379L7.85752 10.9236C8.51002 8.96258 10.3392 7.50289 12.4999 7.50289Z" fill="#EA4335"/>
</svg>
